<?xml version="1.0" encoding="UTF-8" standalone="no"?>
<!-- Created with Inkscape (http://www.inkscape.org/) -->

<svg
   version="1.1"
   id="svg9"
   xml:space="preserve"
   width="1121.3333"
   height="793.33331"
   viewBox="0 0 1121.3333 793.33331"
   sodipodi:docname="Marker_kmeans.svg"
   inkscape:version="1.1 (c68e22c387, 2021-05-23)"
   xmlns:inkscape="http://www.inkscape.org/namespaces/inkscape"
   xmlns:sodipodi="http://sodipodi.sourceforge.net/DTD/sodipodi-0.dtd"
   xmlns="http://www.w3.org/2000/svg"
   xmlns:svg="http://www.w3.org/2000/svg"><defs
     id="defs13"><clipPath
       clipPathUnits="userSpaceOnUse"
       id="clipPath45"><path
         d="M 0,0 H 841.68 V 595.44 H 0 Z"
         id="path43" /></clipPath><clipPath
       clipPathUnits="userSpaceOnUse"
       id="clipPath57"><path
         d="M 33.56,31.26 H 781.28 V 572.15 H 33.56 Z"
         id="path55" /></clipPath></defs><sodipodi:namedview
     id="namedview11"
     pagecolor="#ffffff"
     bordercolor="#666666"
     borderopacity="1.0"
     inkscape:pageshadow="2"
     inkscape:pageopacity="0.0"
     inkscape:pagecheckerboard="0"
     showgrid="false"
     inkscape:zoom="0.74246214"
     inkscape:cx="671.41471"
     inkscape:cy="426.28436"
     inkscape:window-width="1920"
     inkscape:window-height="1051"
     inkscape:window-x="-9"
     inkscape:window-y="-9"
     inkscape:window-maximized="1"
     inkscape:current-layer="g15" /><g
     id="g15"
     inkscape:groupmode="layer"
     inkscape:label="Marker_kmeans"
     transform="matrix(1.3333333,0,0,-1.3333333,0,793.33333)"><g
       id="g17" /><g
       id="g19" /><g
       id="g21" /><g
       id="g23" /><g
       id="g25" /><g
       id="g27" /><g
       id="g29" /><g
       id="g31" /><g
       id="g33" /><g
       id="g35" /><g
       id="g37" /><g
       id="g39"><g
         id="g41"
         clip-path="url(#clipPath45)"><path
           d="M 0,0 H 841.68 V 595.44 H 0 Z"
           style="fill:#ffffff;fill-opacity:1;fill-rule:nonzero;stroke:#ffffff;stroke-width:1.07;stroke-linecap:round;stroke-linejoin:round;stroke-miterlimit:10;stroke-dasharray:none;stroke-opacity:1"
           id="path47" /></g></g><g
       id="g49" /><path
       d="M 33.56,31.26 H 781.28 V 572.15 H 33.56 Z"
       style="fill:#ffffff;fill-opacity:1;fill-rule:nonzero;stroke:none"
       id="path59" /><path
       d="M 33.56,97.83 H 781.28"
       style="fill:none;stroke:#ebebeb;stroke-width:0.53;stroke-linecap:butt;stroke-linejoin:round;stroke-miterlimit:10;stroke-dasharray:none;stroke-opacity:1"
       id="path61" /><path
       d="M 33.56,273.02 H 781.28"
       style="fill:none;stroke:#ebebeb;stroke-width:0.53;stroke-linecap:butt;stroke-linejoin:round;stroke-miterlimit:10;stroke-dasharray:none;stroke-opacity:1"
       id="path63" /><path
       d="M 33.56,448.21 H 781.28"
       style="fill:none;stroke:#ebebeb;stroke-width:0.53;stroke-linecap:butt;stroke-linejoin:round;stroke-miterlimit:10;stroke-dasharray:none;stroke-opacity:1"
       id="path65" /><path
       d="M 147.36,31.26 V 572.15"
       style="fill:none;stroke:#ebebeb;stroke-width:0.53;stroke-linecap:butt;stroke-linejoin:round;stroke-miterlimit:10;stroke-dasharray:none;stroke-opacity:1"
       id="path67" /><path
       d="M 325.98,31.26 V 572.15"
       style="fill:none;stroke:#ebebeb;stroke-width:0.53;stroke-linecap:butt;stroke-linejoin:round;stroke-miterlimit:10;stroke-dasharray:none;stroke-opacity:1"
       id="path69" /><path
       d="M 504.6,31.26 V 572.15"
       style="fill:none;stroke:#ebebeb;stroke-width:0.53;stroke-linecap:butt;stroke-linejoin:round;stroke-miterlimit:10;stroke-dasharray:none;stroke-opacity:1"
       id="path71" /><path
       d="M 683.22,31.26 V 572.15"
       style="fill:none;stroke:#ebebeb;stroke-width:0.53;stroke-linecap:butt;stroke-linejoin:round;stroke-miterlimit:10;stroke-dasharray:none;stroke-opacity:1"
       id="path73" /><path
       d="M 33.56,185.42 H 781.28"
       style="fill:none;stroke:#ebebeb;stroke-width:1.07;stroke-linecap:butt;stroke-linejoin:round;stroke-miterlimit:10;stroke-dasharray:none;stroke-opacity:1"
       id="path75" /><path
       d="M 33.56,360.61 H 781.28"
       style="fill:none;stroke:#ebebeb;stroke-width:1.07;stroke-linecap:butt;stroke-linejoin:round;stroke-miterlimit:10;stroke-dasharray:none;stroke-opacity:1"
       id="path77" /><path
       d="M 33.56,535.8 H 781.28"
       style="fill:none;stroke:#ebebeb;stroke-width:1.07;stroke-linecap:butt;stroke-linejoin:round;stroke-miterlimit:10;stroke-dasharray:none;stroke-opacity:1"
       id="path79" /><path
       d="M 58.04,31.26 V 572.15"
       style="fill:none;stroke:#ebebeb;stroke-width:1.07;stroke-linecap:butt;stroke-linejoin:round;stroke-miterlimit:10;stroke-dasharray:none;stroke-opacity:1"
       id="path81" /><path
       d="M 236.67,31.26 V 572.15"
       style="fill:none;stroke:#ebebeb;stroke-width:1.07;stroke-linecap:butt;stroke-linejoin:round;stroke-miterlimit:10;stroke-dasharray:none;stroke-opacity:1"
       id="path83" /><path
       d="M 415.29,31.26 V 572.15"
       style="fill:none;stroke:#ebebeb;stroke-width:1.07;stroke-linecap:butt;stroke-linejoin:round;stroke-miterlimit:10;stroke-dasharray:none;stroke-opacity:1"
       id="path85" /><path
       d="M 593.91,31.26 V 572.15"
       style="fill:none;stroke:#ebebeb;stroke-width:1.07;stroke-linecap:butt;stroke-linejoin:round;stroke-miterlimit:10;stroke-dasharray:none;stroke-opacity:1"
       id="path87" /><path
       d="M 772.53,31.26 V 572.15"
       style="fill:none;stroke:#ebebeb;stroke-width:1.07;stroke-linecap:butt;stroke-linejoin:round;stroke-miterlimit:10;stroke-dasharray:none;stroke-opacity:1"
       id="path89" /><path
       d="m 302.13,526.09 c 0,1.07 0.88,1.95 1.95,1.95 1.08,0 1.96,-0.88 1.96,-1.95 0,-1.08 -0.88,-1.96 -1.96,-1.96 -1.07,0 -1.95,0.88 -1.95,1.96"
       style="fill:#f8766d;fill-opacity:1;fill-rule:nonzero;stroke:none"
       id="path91" /><path
       d="m 303.92,547.56 c 0,1.08 0.88,1.96 1.96,1.96 1.07,0 1.95,-0.88 1.95,-1.96 0,-1.07 -0.88,-1.95 -1.95,-1.95 -1.08,0 -1.96,0.88 -1.96,1.95"
       style="fill:#f8766d;fill-opacity:1;fill-rule:nonzero;stroke:none"
       id="path93" /><path
       d="m 336.39,538.42 c 0,1.08 0.88,1.96 1.95,1.96 1.08,0 1.96,-0.88 1.96,-1.96 0,-1.07 -0.88,-1.95 -1.96,-1.95 -1.07,0 -1.95,0.88 -1.95,1.95"
       style="fill:#f8766d;fill-opacity:1;fill-rule:nonzero;stroke:none"
       id="path95" /><path
       d="m 86.62,103.74 c 0,1.07 0.88,1.95 1.95,1.95 1.08,0 1.96,-0.88 1.96,-1.95 0,-1.08 -0.88,-1.96 -1.96,-1.96 -1.07,0 -1.95,0.88 -1.95,1.96"
       style="fill:#f8766d;fill-opacity:1;fill-rule:nonzero;stroke:none"
       id="path97" /><path
       d="m 83.43,55.85 c 0,1.07 0.88,1.95 1.95,1.95 1.08,0 1.96,-0.88 1.96,-1.95 0,-1.08 -0.88,-1.96 -1.96,-1.96 -1.07,0 -1.95,0.88 -1.95,1.96"
       style="fill:#f8766d;fill-opacity:1;fill-rule:nonzero;stroke:none"
       id="path99" /><path
       d="m 65.59,142.13 c 0,1.07 0.88,1.95 1.96,1.95 1.07,0 1.95,-0.88 1.95,-1.95 0,-1.08 -0.88,-1.96 -1.95,-1.96 -1.08,0 -1.96,0.88 -1.96,1.96"
       style="fill:#f8766d;fill-opacity:1;fill-rule:nonzero;stroke:none"
       id="path101" /><path
       d="m 142.1,367.39 c 0,1.07 0.88,1.95 1.96,1.95 1.07,0 1.95,-0.88 1.95,-1.95 0,-1.08 -0.88,-1.96 -1.95,-1.96 -1.08,0 -1.96,0.88 -1.96,1.96"
       style="fill:#f8766d;fill-opacity:1;fill-rule:nonzero;stroke:none"
       id="path103" /><path
       d="m 172.05,420.87 c 0,1.08 0.88,1.96 1.95,1.96 1.08,0 1.96,-0.88 1.96,-1.96 0,-1.07 -0.88,-1.95 -1.96,-1.95 -1.07,0 -1.95,0.88 -1.95,1.95"
       style="fill:#f8766d;fill-opacity:1;fill-rule:nonzero;stroke:none"
       id="path105" /><path
       d="m 173.69,400.26 c 0,1.08 0.88,1.96 1.95,1.96 1.08,0 1.96,-0.88 1.96,-1.96 0,-1.07 -0.88,-1.95 -1.96,-1.95 -1.07,0 -1.95,0.88 -1.95,1.95"
       style="fill:#f8766d;fill-opacity:1;fill-rule:nonzero;stroke:none"
       id="path107" /><path
       d="m 295.2,489.91 c 0,1.07 0.88,1.95 1.96,1.95 1.07,0 1.95,-0.88 1.95,-1.95 0,-1.08 -0.88,-1.96 -1.95,-1.96 -1.08,0 -1.96,0.88 -1.96,1.96"
       style="fill:#f8766d;fill-opacity:1;fill-rule:nonzero;stroke:none"
       id="path109" /><path
       d="m 265.12,492.06 c 0,1.07 0.88,1.95 1.96,1.95 1.07,0 1.95,-0.88 1.95,-1.95 0,-1.08 -0.88,-1.96 -1.95,-1.96 -1.08,0 -1.96,0.88 -1.96,1.96"
       style="fill:#f8766d;fill-opacity:1;fill-rule:nonzero;stroke:none"
       id="path111" /><path
       d="m 340.55,472.22 c 0,1.07 0.88,1.95 1.95,1.95 1.08,0 1.96,-0.88 1.96,-1.95 0,-1.08 -0.88,-1.96 -1.96,-1.96 -1.07,0 -1.95,0.88 -1.95,1.96"
       style="fill:#f8766d;fill-opacity:1;fill-rule:nonzero;stroke:none"
       id="path113" /><path
       d="m 458.58,497.09 2.63,-4.56 h -5.26 z"
       style="fill:#00bfc4;fill-opacity:1;fill-rule:nonzero;stroke:none"
       id="path115" /><path
       d="m 560.17,422.99 2.64,-4.56 h -5.27 z"
       style="fill:#00bfc4;fill-opacity:1;fill-rule:nonzero;stroke:none"
       id="path117" /><path
       d="m 540.79,408.98 2.64,-4.56 h -5.27 z"
       style="fill:#00bfc4;fill-opacity:1;fill-rule:nonzero;stroke:none"
       id="path119" /><path
       d="m 747.3,219.11 2.63,-4.56 h -5.27 z"
       style="fill:#00bfc4;fill-opacity:1;fill-rule:nonzero;stroke:none"
       id="path121" /><path
       d="m 720.95,234.53 2.63,-4.56 h -5.27 z"
       style="fill:#00bfc4;fill-opacity:1;fill-rule:nonzero;stroke:none"
       id="path123" /><path
       d="m 703.47,189.94 2.63,-4.56 h -5.26 z"
       style="fill:#00bfc4;fill-opacity:1;fill-rule:nonzero;stroke:none"
       id="path125" /><path
       d="m 647.52,304.87 2.63,-4.56 h -5.26 z"
       style="fill:#00bfc4;fill-opacity:1;fill-rule:nonzero;stroke:none"
       id="path127" /><path
       d="m 632.24,345.24 2.63,-4.56 h -5.26 z"
       style="fill:#00bfc4;fill-opacity:1;fill-rule:nonzero;stroke:none"
       id="path129" /><path
       d="m 694.73,278.9 2.63,-4.56 h -5.27 z"
       style="fill:#00bfc4;fill-opacity:1;fill-rule:nonzero;stroke:none"
       id="path131" /><path
       d="m 543.14,417.91 2.64,-4.56 h -5.27 z"
       style="fill:#00bfc4;fill-opacity:1;fill-rule:nonzero;stroke:none"
       id="path133" /><path
       d="m 550.24,420.72 2.63,-4.56 h -5.26 z"
       style="fill:#00bfc4;fill-opacity:1;fill-rule:nonzero;stroke:none"
       id="path135" /><path
       d="m 577.48,394.43 2.64,-4.55 h -5.27 z"
       style="fill:#00bfc4;fill-opacity:1;fill-rule:nonzero;stroke:none"
       id="path137" /><path
       d="m 85.38,55.85 -17.83,86.28 76.51,225.26 29.94,53.48 131.88,126.69 32.46,-9.14 4.16,-66.2 z"
       style="fill:#f8766d;fill-opacity:0.2;fill-rule:nonzero;stroke:#f8766d;stroke-width:1.07;stroke-linecap:round;stroke-linejoin:round;stroke-miterlimit:10;stroke-dasharray:none;stroke-opacity:1"
       id="path139" /><path
       d="M 694.73,275.86 747.3,216.07 703.47,186.9 458.58,494.05 560.17,419.95 Z"
       style="fill:#00bfc4;fill-opacity:0.2;fill-rule:nonzero;stroke:#00bfc4;stroke-width:1.07;stroke-linecap:round;stroke-linejoin:round;stroke-miterlimit:10;stroke-dasharray:none;stroke-opacity:1"
       id="path141" /><path
       d="m 212.3,379.71 c 0,1.95 1.6,3.55 3.55,3.55 1.96,0 3.56,-1.6 3.56,-3.55 0,-1.96 -1.6,-3.56 -3.56,-3.56 -1.95,0 -3.55,1.6 -3.55,3.56"
       style="fill:#f8766d;fill-opacity:1;fill-rule:nonzero;stroke:none"
       id="path143" /><path
       d="m 614.72,347.05 4.79,-8.29 h -9.58 z"
       style="fill:#00bfc4;fill-opacity:1;fill-rule:nonzero;stroke:none"
       id="path145" /><text
       transform="scale(1,-1)"
       style="font-variant:normal;font-weight:normal;font-size:11px;font-family:Helvetica;-inkscape-font-specification:Helvetica;writing-mode:lr-tb;fill:#f8766d;fill-opacity:1;fill-rule:nonzero;stroke:none"
       id="text149"
       x="275.37793"
       y="-513.43726"><tspan
         x="275.37793 283.31992 291.87793 294.93591 301.05191 307.16794 316.33093 322.44693 329.78394 332.22592"
         y="-513.43726"
         sodipodi:role="line"
         id="tspan147">COI_3M_Sla</tspan></text><text
       transform="scale(1,-1)"
       style="font-variant:normal;font-weight:normal;font-size:11px;font-family:Helvetica;-inkscape-font-specification:Helvetica;writing-mode:lr-tb;fill:#f8766d;fill-opacity:1;fill-rule:nonzero;stroke:none"
       id="text153"
       x="271.03"
       y="-553.09003"><tspan
         x="271.03 278.97198 287.53 290.58801 296.70401 302.82001 311.983 318.099 325.436 332.77301"
         y="-553.09003"
         sodipodi:role="line"
         id="tspan151">COI_3M_PVC</tspan></text><text
       transform="scale(1,-1)"
       style="font-variant:normal;font-weight:normal;font-size:11px;font-family:Helvetica;-inkscape-font-specification:Helvetica;writing-mode:lr-tb;fill:#f8766d;fill-opacity:1;fill-rule:nonzero;stroke:none"
       id="text157"
       x="341.04535"
       y="-541.92969"><tspan
         x="341.04535 348.98734 357.54535 360.60333 366.71936 372.83536 381.99835 388.11435 396.67233 400.22534"
         y="-541.92969"
         sodipodi:role="line"
         id="tspan155">COI_3M_Gra</tspan></text><text
       transform="scale(1,-1)"
       style="font-variant:normal;font-weight:normal;font-size:11px;font-family:Helvetica;-inkscape-font-specification:Helvetica;writing-mode:lr-tb;fill:#f8766d;fill-opacity:1;fill-rule:nonzero;stroke:none"
       id="text161"
       x="93.770264"
       y="-101.69386"><tspan
         x="93.770264 101.71227 110.27026 113.32826 119.44427 125.56026 131.06026 137.17625 144.51326 146.95526"
         y="-101.69386"
         sodipodi:role="line"
         id="tspan159">COI_7J_Sla</tspan></text><text
       transform="scale(1,-1)"
       style="font-variant:normal;font-weight:normal;font-size:11px;font-family:Helvetica;-inkscape-font-specification:Helvetica;writing-mode:lr-tb;fill:#f8766d;fill-opacity:1;fill-rule:nonzero;stroke:none"
       id="text165"
       x="92.271027"
       y="-54.308933"><tspan
         x="92.271027 100.21303 108.77103 111.82903 117.94502 124.06103 129.56104 135.67703 143.01402 150.35103"
         y="-54.308933"
         sodipodi:role="line"
         id="tspan163">COI_7J_PVC</tspan></text><text
       transform="scale(1,-1)"
       style="font-variant:normal;font-weight:normal;font-size:11px;font-family:Helvetica;-inkscape-font-specification:Helvetica;writing-mode:lr-tb;fill:#f8766d;fill-opacity:1;fill-rule:nonzero;stroke:none"
       id="text169"
       x="72.590416"
       y="-141.58908"><tspan
         x="72.590416 80.532417 89.090416 92.148415 98.264412 104.38042 109.88042 115.99641 124.55441 128.10742"
         y="-141.58908"
         sodipodi:role="line"
         id="tspan167">COI_7J_Gra</tspan></text><text
       transform="scale(1,-1)"
       style="font-variant:normal;font-weight:normal;font-size:11px;font-family:Helvetica;-inkscape-font-specification:Helvetica;writing-mode:lr-tb;fill:#f8766d;fill-opacity:1;fill-rule:nonzero;stroke:none"
       id="text173"
       x="71.939278"
       y="-364.33371"><tspan
         x="71.939278 79.881279 88.439278 91.497284 97.613281 103.72928 109.84528 118.40327 124.51929 131.85628 134.29828"
         y="-364.33371"
         sodipodi:role="line"
         id="tspan171">COI_10O_Sla</tspan></text><text
       transform="scale(1,-1)"
       style="font-variant:normal;font-weight:normal;font-size:11px;font-family:Helvetica;-inkscape-font-specification:Helvetica;writing-mode:lr-tb;fill:#f8766d;fill-opacity:1;fill-rule:nonzero;stroke:none"
       id="text177"
       x="94.48867"
       y="-422.86447"><tspan
         x="94.48867 102.43067 110.98867 114.04667 120.16267 126.27866 132.39467 140.95268 147.06868 154.40567 161.74268"
         y="-422.86447"
         sodipodi:role="line"
         id="tspan175">COI_10O_PVC</tspan></text><text
       transform="scale(1,-1)"
       style="font-variant:normal;font-weight:normal;font-size:11px;font-family:Helvetica;-inkscape-font-specification:Helvetica;writing-mode:lr-tb;fill:#f8766d;fill-opacity:1;fill-rule:nonzero;stroke:none"
       id="text181"
       x="179.13087"
       y="-401.24432"><tspan
         x="179.13087 187.07288 195.63087 198.68887 204.80487 210.92087 217.03687 225.59486 231.71088 240.26888 243.82187"
         y="-401.24432"
         sodipodi:role="line"
         id="tspan179">COI_10O_Gra</tspan></text><text
       transform="scale(1,-1)"
       style="font-variant:normal;font-weight:normal;font-size:11px;font-family:Helvetica;-inkscape-font-specification:Helvetica;writing-mode:lr-tb;fill:#f8766d;fill-opacity:1;fill-rule:nonzero;stroke:none"
       id="text185"
       x="262.62"
       y="-478.14114"><tspan
         x="262.62 270.56201 279.12 282.17801 288.29401 294.41 300.526 309.689 315.80499 323.142 325.58401"
         y="-478.14114"
         sodipodi:role="line"
         id="tspan183">COI_15M_Sla</tspan></text><text
       transform="scale(1,-1)"
       style="font-variant:normal;font-weight:normal;font-size:11px;font-family:Helvetica;-inkscape-font-specification:Helvetica;writing-mode:lr-tb;fill:#f8766d;fill-opacity:1;fill-rule:nonzero;stroke:none"
       id="text189"
       x="188.90016"
       y="-494.54953"><tspan
         x="188.90016 196.84215 205.40016 208.45818 214.57417 220.69017 226.80617 235.96916 242.08516 249.42215 256.75916"
         y="-494.54953"
         sodipodi:role="line"
         id="tspan187">COI_15M_PVC</tspan></text><text
       transform="scale(1,-1)"
       style="font-variant:normal;font-weight:normal;font-size:11px;font-family:Helvetica;-inkscape-font-specification:Helvetica;writing-mode:lr-tb;fill:#f8766d;fill-opacity:1;fill-rule:nonzero;stroke:none"
       id="text193"
       x="341.14517"
       y="-459.56726"><tspan
         x="341.14517 349.08719 357.64517 360.70319 366.81918 372.93518 379.05118 388.21417 394.3302 402.88818 406.44119"
         y="-459.56726"
         sodipodi:role="line"
         id="tspan191">COI_15M_Gra</tspan></text><text
       transform="scale(1,-1)"
       style="font-variant:normal;font-weight:normal;font-size:11px;font-family:Helvetica;-inkscape-font-specification:Helvetica;writing-mode:lr-tb;fill:#00bfc4;fill-opacity:1;fill-rule:nonzero;stroke:none"
       id="text197"
       x="427.09"
       y="-499.57999"><tspan
         x="427.09 433.20599 439.32199 446.659 452.77499 458.89099 468.05399 474.17001 481.50699 483.94901"
         y="-499.57999"
         sodipodi:role="line"
         id="tspan195">18S_3M_Sla</tspan></text><text
       transform="scale(1,-1)"
       style="font-variant:normal;font-weight:normal;font-size:11px;font-family:Helvetica;-inkscape-font-specification:Helvetica;writing-mode:lr-tb;fill:#00bfc4;fill-opacity:1;fill-rule:nonzero;stroke:none"
       id="text201"
       x="561.21283"
       y="-419.76572"><tspan
         x="561.21283 567.3288 573.44482 580.7818 586.89783 593.01379 602.17682 608.29285 615.62982 622.9668"
         y="-419.76572"
         sodipodi:role="line"
         id="tspan199">18S_3M_PVC</tspan></text><text
       transform="scale(1,-1)"
       style="font-variant:normal;font-weight:normal;font-size:11px;font-family:Helvetica;-inkscape-font-specification:Helvetica;writing-mode:lr-tb;fill:#00bfc4;fill-opacity:1;fill-rule:nonzero;stroke:none"
       id="text205"
       x="488.69455"
       y="-395.24445"><tspan
         x="488.69455 494.81052 500.92654 508.26352 514.37958 520.49554 529.65857 535.7746 544.33258 547.88556"
         y="-395.24445"
         sodipodi:role="line"
         id="tspan203">18S_3M_Gra</tspan></text><text
       transform="scale(1,-1)"
       style="font-variant:normal;font-weight:normal;font-size:11px;font-family:Helvetica;-inkscape-font-specification:Helvetica;writing-mode:lr-tb;fill:#00bfc4;fill-opacity:1;fill-rule:nonzero;stroke:none"
       id="text209"
       x="717.38745"
       y="-205.43756"><tspan
         x="717.38745 723.50342 729.61945 736.95642 743.07245 749.18842 754.68842 760.80444 768.14142 770.58344"
         y="-205.43756"
         sodipodi:role="line"
         id="tspan207">18S_7J_Sla</tspan></text><text
       transform="scale(1,-1)"
       style="font-variant:normal;font-weight:normal;font-size:11px;font-family:Helvetica;-inkscape-font-specification:Helvetica;writing-mode:lr-tb;fill:#00bfc4;fill-opacity:1;fill-rule:nonzero;stroke:none"
       id="text213"
       x="667.22186"
       y="-236.51492"><tspan
         x="667.22186 673.33789 679.45386 686.79089 692.90686 699.02289 704.52289 710.63885 717.97589 725.31287"
         y="-236.51492"
         sodipodi:role="line"
         id="tspan211">18S_7J_PVC</tspan></text><text
       transform="scale(1,-1)"
       style="font-variant:normal;font-weight:normal;font-size:11px;font-family:Helvetica;-inkscape-font-specification:Helvetica;writing-mode:lr-tb;fill:#00bfc4;fill-opacity:1;fill-rule:nonzero;stroke:none"
       id="text217"
       x="669.61957"
       y="-174.24725"><tspan
         x="669.61957 675.73553 681.85156 689.18854 695.30457 701.42053 706.92053 713.03656 721.59454 725.14752"
         y="-174.24725"
         sodipodi:role="line"
         id="tspan215">18S_7J_Gra</tspan></text><text
       transform="scale(1,-1)"
       style="font-variant:normal;font-weight:normal;font-size:11px;font-family:Helvetica;-inkscape-font-specification:Helvetica;writing-mode:lr-tb;fill:#00bfc4;fill-opacity:1;fill-rule:nonzero;stroke:none"
       id="text221"
       x="592.82446"
       y="-305.83478"><tspan
         x="592.82446 598.94043 605.05646 612.39343 618.50946 624.62543 630.74146 639.29944 645.41541 652.75244 655.19446"
         y="-305.83478"
         sodipodi:role="line"
         id="tspan219">18S_10O_Sla</tspan></text><text
       transform="scale(1,-1)"
       style="font-variant:normal;font-weight:normal;font-size:11px;font-family:Helvetica;-inkscape-font-specification:Helvetica;writing-mode:lr-tb;fill:#00bfc4;fill-opacity:1;fill-rule:nonzero;stroke:none"
       id="text225"
       x="633.78345"
       y="-343.68939"><tspan
         x="633.78345 639.89941 646.01544 653.35242 659.46844 665.58441 671.70044 680.25842 686.37445 693.71143 701.04846"
         y="-343.68939"
         sodipodi:role="line"
         id="tspan223">18S_10O_PVC</tspan></text><text
       transform="scale(1,-1)"
       style="font-variant:normal;font-weight:normal;font-size:11px;font-family:Helvetica;-inkscape-font-specification:Helvetica;writing-mode:lr-tb;fill:#00bfc4;fill-opacity:1;fill-rule:nonzero;stroke:none"
       id="text229"
       x="691.6449"
       y="-280.12732"><tspan
         x="691.6449 697.76086 703.87689 711.21387 717.3299 723.44586 729.56189 738.11987 744.2359 752.79388 756.34692"
         y="-280.12732"
         sodipodi:role="line"
         id="tspan227">18S_10O_Gra</tspan></text><text
       transform="scale(1,-1)"
       style="font-variant:normal;font-weight:normal;font-size:11px;font-family:Helvetica;-inkscape-font-specification:Helvetica;writing-mode:lr-tb;fill:#00bfc4;fill-opacity:1;fill-rule:nonzero;stroke:none"
       id="text233"
       x="471.44162"
       y="-410.76395"><tspan
         x="471.44162 477.55762 483.67358 491.01062 497.12662 503.24265 509.35867 518.52167 524.6377 531.97467 534.41669"
         y="-410.76395"
         sodipodi:role="line"
         id="tspan231">18S_15M_Sla</tspan></text><text
       transform="scale(1,-1)"
       style="font-variant:normal;font-weight:normal;font-size:11px;font-family:Helvetica;-inkscape-font-specification:Helvetica;writing-mode:lr-tb;fill:#00bfc4;fill-opacity:1;fill-rule:nonzero;stroke:none"
       id="text237"
       x="477.68716"
       y="-423.20999"><tspan
         x="477.68716 483.80316 489.91919 497.25616 503.37219 509.48816 515.60419 524.76715 530.88318 538.22015 545.55719"
         y="-423.20999"
         sodipodi:role="line"
         id="tspan235">18S_15M_PVC</tspan></text><text
       transform="scale(1,-1)"
       style="font-variant:normal;font-weight:normal;font-size:11px;font-family:Helvetica;-inkscape-font-specification:Helvetica;writing-mode:lr-tb;fill:#00bfc4;fill-opacity:1;fill-rule:nonzero;stroke:none"
       id="text241"
       x="579.14569"
       y="-392.87939"><tspan
         x="579.14569 585.26166 591.37769 598.71466 604.83069 610.94666 617.06268 626.22565 632.34167 640.89966 644.4527"
         y="-392.87939"
         sodipodi:role="line"
         id="tspan239">18S_15M_Gra</tspan></text><path
       d="M 33.56,31.26 H 781.28 V 572.15 H 33.56 Z"
       style="fill:none;stroke:#333333;stroke-width:1.07;stroke-linecap:round;stroke-linejoin:round;stroke-miterlimit:10;stroke-dasharray:none;stroke-opacity:1"
       id="path243" /><g
       id="g245" /><g
       id="g247" /><g
       id="g249" /><g
       id="g251" /><g
       id="g253" /><g
       id="g255" /><g
       id="g257" /><g
       id="g259" /><g
       id="g261" /><g
       id="g263" /><g
       id="g265" /><g
       id="g267" /><g
       id="g269" /><g
       id="g271" /><g
       id="g273" /><g
       id="g275"><text
         transform="matrix(1,0,0,-1,18.37,182.19)"
         style="font-variant:normal;font-weight:normal;font-size:9px;font-family:Helvetica;-inkscape-font-specification:Helvetica;writing-mode:lr-tb;fill:#4d4d4d;fill-opacity:1;fill-rule:nonzero;stroke:none"
         id="text279"><tspan
           x="0 5.256"
           y="0"
           sodipodi:role="line"
           id="tspan277">−5</tspan></text><text
         transform="matrix(1,0,0,-1,23.62,357.38)"
         style="font-variant:normal;font-weight:normal;font-size:9px;font-family:Helvetica;-inkscape-font-specification:Helvetica;writing-mode:lr-tb;fill:#4d4d4d;fill-opacity:1;fill-rule:nonzero;stroke:none"
         id="text283"><tspan
           x="0"
           y="0"
           id="tspan281">0</tspan></text><text
         transform="matrix(1,0,0,-1,23.62,532.57)"
         style="font-variant:normal;font-weight:normal;font-size:9px;font-family:Helvetica;-inkscape-font-specification:Helvetica;writing-mode:lr-tb;fill:#4d4d4d;fill-opacity:1;fill-rule:nonzero;stroke:none"
         id="text287"><tspan
           x="0"
           y="0"
           id="tspan285">5</tspan></text></g><g
       id="g289" /><g
       id="g291"><path
         d="m 30.82,185.42 h 2.74"
         style="fill:none;stroke:#333333;stroke-width:1.07;stroke-linecap:butt;stroke-linejoin:round;stroke-miterlimit:10;stroke-dasharray:none;stroke-opacity:1"
         id="path293" /><path
         d="m 30.82,360.61 h 2.74"
         style="fill:none;stroke:#333333;stroke-width:1.07;stroke-linecap:butt;stroke-linejoin:round;stroke-miterlimit:10;stroke-dasharray:none;stroke-opacity:1"
         id="path295" /><path
         d="m 30.82,535.8 h 2.74"
         style="fill:none;stroke:#333333;stroke-width:1.07;stroke-linecap:butt;stroke-linejoin:round;stroke-miterlimit:10;stroke-dasharray:none;stroke-opacity:1"
         id="path297" /></g><g
       id="g299" /><g
       id="g301" /><g
       id="g303" /><g
       id="g305" /><g
       id="g307" /><g
       id="g309" /><g
       id="g311" /><g
       id="g313" /><g
       id="g315" /><g
       id="g317"><path
         d="m 58.04,28.52 v 2.74"
         style="fill:none;stroke:#333333;stroke-width:1.07;stroke-linecap:butt;stroke-linejoin:round;stroke-miterlimit:10;stroke-dasharray:none;stroke-opacity:1"
         id="path319" /><path
         d="m 236.67,28.52 v 2.74"
         style="fill:none;stroke:#333333;stroke-width:1.07;stroke-linecap:butt;stroke-linejoin:round;stroke-miterlimit:10;stroke-dasharray:none;stroke-opacity:1"
         id="path321" /><path
         d="m 415.29,28.52 v 2.74"
         style="fill:none;stroke:#333333;stroke-width:1.07;stroke-linecap:butt;stroke-linejoin:round;stroke-miterlimit:10;stroke-dasharray:none;stroke-opacity:1"
         id="path323" /><path
         d="m 593.91,28.52 v 2.74"
         style="fill:none;stroke:#333333;stroke-width:1.07;stroke-linecap:butt;stroke-linejoin:round;stroke-miterlimit:10;stroke-dasharray:none;stroke-opacity:1"
         id="path325" /><path
         d="m 772.53,28.52 v 2.74"
         style="fill:none;stroke:#333333;stroke-width:1.07;stroke-linecap:butt;stroke-linejoin:round;stroke-miterlimit:10;stroke-dasharray:none;stroke-opacity:1"
         id="path327" /></g><g
       id="g329" /><g
       id="g331"><text
         transform="matrix(1,0,0,-1,50.41,19.87)"
         style="font-variant:normal;font-weight:normal;font-size:9px;font-family:Helvetica;-inkscape-font-specification:Helvetica;writing-mode:lr-tb;fill:#4d4d4d;fill-opacity:1;fill-rule:nonzero;stroke:none"
         id="text335"><tspan
           x="0 5.256 10.26"
           y="0"
           sodipodi:role="line"
           id="tspan333">−10</tspan></text><text
         transform="matrix(1,0,0,-1,231.54,19.87)"
         style="font-variant:normal;font-weight:normal;font-size:9px;font-family:Helvetica;-inkscape-font-specification:Helvetica;writing-mode:lr-tb;fill:#4d4d4d;fill-opacity:1;fill-rule:nonzero;stroke:none"
         id="text339"><tspan
           x="0 5.256"
           y="0"
           sodipodi:role="line"
           id="tspan337">−5</tspan></text><text
         transform="matrix(1,0,0,-1,412.78,19.87)"
         style="font-variant:normal;font-weight:normal;font-size:9px;font-family:Helvetica;-inkscape-font-specification:Helvetica;writing-mode:lr-tb;fill:#4d4d4d;fill-opacity:1;fill-rule:nonzero;stroke:none"
         id="text343"><tspan
           x="0"
           y="0"
           id="tspan341">0</tspan></text><text
         transform="matrix(1,0,0,-1,591.4,19.87)"
         style="font-variant:normal;font-weight:normal;font-size:9px;font-family:Helvetica;-inkscape-font-specification:Helvetica;writing-mode:lr-tb;fill:#4d4d4d;fill-opacity:1;fill-rule:nonzero;stroke:none"
         id="text347"><tspan
           x="0"
           y="0"
           id="tspan345">5</tspan></text><text
         transform="matrix(1,0,0,-1,767.52,19.87)"
         style="font-variant:normal;font-weight:normal;font-size:9px;font-family:Helvetica;-inkscape-font-specification:Helvetica;writing-mode:lr-tb;fill:#4d4d4d;fill-opacity:1;fill-rule:nonzero;stroke:none"
         id="text351"><tspan
           x="0 5.0040002"
           y="0"
           sodipodi:role="line"
           id="tspan349">10</tspan></text></g><g
       id="g353" /><g
       id="g355" /><g
       id="g357" /><g
       id="g359" /><g
       id="g361" /><g
       id="g363"><text
         transform="matrix(1,0,0,-1,373.8,7.73)"
         style="font-variant:normal;font-weight:normal;font-size:11px;font-family:Helvetica;-inkscape-font-specification:Helvetica;writing-mode:lr-tb;fill:#000000;fill-opacity:1;fill-rule:nonzero;stroke:none"
         id="text367"><tspan
           x="0 7.9419999 10.384 19.547001 25.663 28.721001 32.383999 38.5 44.616001 47.674 53.790001 63.569"
           y="0"
           sodipodi:role="line"
           id="tspan365">Dim1 (24.8%)</tspan></text></g><g
       id="g369" /><g
       id="g371"><text
         transform="matrix(0,1,1,0,13.38,268.09)"
         style="font-variant:normal;font-weight:normal;font-size:11px;font-family:Helvetica;-inkscape-font-specification:Helvetica;writing-mode:lr-tb;fill:#000000;fill-opacity:1;fill-rule:nonzero;stroke:none"
         id="text375"><tspan
           x="0 7.9419999 10.384 19.547001 25.663 28.721001 32.383999 38.5 44.616001 47.674 53.790001 63.569"
           y="0"
           sodipodi:role="line"
           id="tspan373">Dim2 (10.2%)</tspan></text></g><g
       id="g377" /><g
       id="g379" /><g
       id="g381" /><g
       id="g383" /><g
       id="g385" /><g
       id="g387" /><g
       id="g389" /><g
       id="g391"><path
         d="m 792.24,270.58 h 43.96 v 62.25 h -43.96 z"
         style="fill:#ffffff;fill-opacity:1;fill-rule:nonzero;stroke:none"
         id="path393" /></g><g
       id="g395" /><g
       id="g397" /><g
       id="g399" /><g
       id="g401"><text
         transform="matrix(1,0,0,-1,797.72,317.77)"
         style="font-variant:normal;font-weight:normal;font-size:11px;font-family:Helvetica;-inkscape-font-specification:Helvetica;writing-mode:lr-tb;fill:#000000;fill-opacity:1;fill-rule:nonzero;stroke:none"
         id="text405"><tspan
           x="0 5.5 7.9419999 14.058 19.558001 22.615999 28.732"
           y="0"
           sodipodi:role="line"
           id="tspan403">cluster</tspan></text></g><g
       id="g407" /><g
       id="g409" /><g
       id="g411"><path
         d="M 797.72,293.34 H 815 v 17.28 h -17.28 z"
         style="fill:#ffffff;fill-opacity:1;fill-rule:nonzero;stroke:none"
         id="path413" /></g><g
       id="g415" /><g
       id="g417"><path
         d="m 804.41,301.98 c 0,1.07 0.88,1.95 1.95,1.95 1.08,0 1.96,-0.88 1.96,-1.95 0,-1.08 -0.88,-1.96 -1.96,-1.96 -1.07,0 -1.95,0.88 -1.95,1.96"
         style="fill:#f8766d;fill-opacity:1;fill-rule:nonzero;stroke:none"
         id="path419" /></g><g
       id="g421" /><g
       id="g423"><path
         d="m 798.43,294.05 h 15.86 v 15.86 h -15.86 z"
         style="fill:#f8766d;fill-opacity:0.2;fill-rule:nonzero;stroke:#f8766d;stroke-width:1.07;stroke-linecap:square;stroke-linejoin:miter;stroke-miterlimit:10;stroke-dasharray:none;stroke-opacity:1"
         id="path425" /></g><g
       id="g427" /><g
       id="g429"><path
         d="m 802.81,301.98 c 0,1.95 1.6,3.55 3.55,3.55 1.96,0 3.56,-1.6 3.56,-3.55 0,-1.96 -1.6,-3.56 -3.56,-3.56 -1.95,0 -3.55,1.6 -3.55,3.56"
         style="fill:#f8766d;fill-opacity:1;fill-rule:nonzero;stroke:none"
         id="path431" /></g><g
       id="g433" /><g
       id="g441" /><g
       id="g443"><path
         d="M 797.72,276.06 H 815 v 17.28 h -17.28 z"
         style="fill:#ffffff;fill-opacity:1;fill-rule:nonzero;stroke:none"
         id="path445" /></g><g
       id="g447" /><g
       id="g449"><path
         d="m 806.36,287.74 2.63,-4.56 h -5.26 z"
         style="fill:#00bfc4;fill-opacity:1;fill-rule:nonzero;stroke:none"
         id="path451" /></g><g
       id="g453" /><g
       id="g455"><path
         d="m 798.43,276.77 h 15.86 v 15.86 h -15.86 z"
         style="fill:#00bfc4;fill-opacity:0.2;fill-rule:nonzero;stroke:#00bfc4;stroke-width:1.07;stroke-linecap:square;stroke-linejoin:miter;stroke-miterlimit:10;stroke-dasharray:none;stroke-opacity:1"
         id="path457" /></g><g
       id="g459" /><g
       id="g461"><path
         d="m 806.36,290.23 4.79,-8.3 h -9.58 z"
         style="fill:#00bfc4;fill-opacity:1;fill-rule:nonzero;stroke:none"
         id="path463" /></g><g
       id="g465" /><g
       id="g473" /><g
       id="g475" /><g
       id="g477" /><g
       id="g479"><text
         transform="matrix(1,0,0,-1,820.48,298.75)"
         style="font-variant:normal;font-weight:normal;font-size:9px;font-family:Helvetica;-inkscape-font-specification:Helvetica;writing-mode:lr-tb;fill:#000000;fill-opacity:1;fill-rule:nonzero;stroke:none"
         id="text483"><tspan
           x="0"
           y="0"
           id="tspan481">1</tspan></text></g><g
       id="g485" /><g
       id="g487" /><g
       id="g489" /><g
       id="g491" /><g
       id="g493"><text
         transform="matrix(1,0,0,-1,820.48,281.47)"
         style="font-variant:normal;font-weight:normal;font-size:9px;font-family:Helvetica;-inkscape-font-specification:Helvetica;writing-mode:lr-tb;fill:#000000;fill-opacity:1;fill-rule:nonzero;stroke:none"
         id="text497"><tspan
           x="0"
           y="0"
           id="tspan495">2</tspan></text></g><g
       id="g499" /><g
       id="g501" /><g
       id="g503" /><g
       id="g505" /><g
       id="g507" /><g
       id="g509" /><g
       id="g517" /><g
       id="g519" /><g
       id="g521" /><g
       id="g523" /><g
       id="g525" /><g
       id="g527" /></g></svg>
